<svg id="Layer_1" enable-background="new 0 0 510 510" height="512" viewBox="0 0 510 510" width="512" xmlns="http://www.w3.org/2000/svg"><path fill="#ffffff" d="m480 420v-120h-180v-30h-30v-60h90c41.355 0 75-33.645 75-75 0-38.312-28.874-70.005-66.003-74.464-17.176-40.317-65.401-57.391-104.228-36.736-14.048-14.948-33.929-23.8-54.769-23.8-36.663 0-67.267 26.445-73.739 61.261-34.816 6.472-61.261 37.076-61.261 73.739 0 41.355 33.645 75 75 75h90v60h-30v30h-180v120h-30v90h90v-90h-30v-90h150v30h30v60h-30v90h90v-90h-30v-60h30v-30h150v90h-30v90h90v-90zm-375-285c0-24.813 20.187-45 45-45h15v-15c0-24.813 20.186-45 45-45 15.917 0 30.335 8.153 38.569 21.81l9.064 15.033 13.435-11.298c8.088-6.8 18.363-10.545 28.932-10.545 20.548 0 38.471 13.874 43.583 33.738l2.898 11.262h13.519c24.814 0 45 20.187 45 45s-20.186 45-45 45h-210c-24.813 0-45-20.186-45-45zm-45 345h-30v-30h30zm210 0h-30v-30h30zm0-150h-30v-30h30zm210 150h-30v-30h30z"/></svg>