<?xml version="1.0" encoding="utf-8"?>
<!-- Generator: Adobe Illustrator 16.0.3, SVG Export Plug-In . SVG Version: 6.00 Build 0)  -->
<!DOCTYPE svg PUBLIC "-//W3C//DTD SVG 1.1//EN" "http://www.w3.org/Graphics/SVG/1.1/DTD/svg11.dtd">
<svg version="1.1" id="Layer_1" xmlns="http://www.w3.org/2000/svg" xmlns:xlink="http://www.w3.org/1999/xlink" x="0px" y="0px"
	 width="160px" height="30px" viewBox="0 0 160 30" enable-background="new 0 0 160 30" xml:space="preserve">
<g>
	<g>
		<g>
			
				<rect x="23.373" y="-0.697" transform="matrix(-0.7156 -0.6985 0.6985 -0.7156 35.7241 44.5243)" fill="#6C489D" width="7.105" height="31.375"/>
		</g>
		<g>
			
				<rect x="7.408" y="11.128" transform="matrix(-0.699 0.7151 -0.7151 -0.699 30.3235 19.9512)" fill="#6C489D" width="7.109" height="10.458"/>
		</g>
		<g>
			
				<rect x="7.388" y="8.757" transform="matrix(0.7156 0.6985 -0.6985 0.7156 12.8816 -3.6652)" fill="#6C489D" width="7.108" height="10.459"/>
		</g>
		<g>
			
				<rect x="39.356" y="10.761" transform="matrix(0.7157 0.6984 -0.6984 0.7157 23.3648 -25.4214)" fill="#6C489D" width="7.108" height="10.459"/>
		</g>
		<g>
			
				<rect x="39.335" y="8.393" transform="matrix(-0.6991 0.715 -0.715 -0.6991 82.6134 -7.5188)" fill="#6C489D" width="7.108" height="10.459"/>
		</g>
	</g>
	<g>
		<path fill="#6C489D" d="M52.517,11.972c0.462-0.836,1.106-1.488,1.932-1.955s1.763-0.701,2.81-0.701
			c1.283,0,2.381,0.339,3.295,1.017s1.524,1.602,1.833,2.771h-2.895c-0.216-0.451-0.521-0.795-0.917-1.031s-0.844-0.354-1.347-0.354
			c-0.811,0-1.468,0.282-1.971,0.847c-0.503,0.564-0.754,1.319-0.754,2.264s0.251,1.699,0.754,2.264
			c0.502,0.564,1.16,0.847,1.971,0.847c0.503,0,0.952-0.118,1.347-0.354c0.395-0.235,0.701-0.579,0.917-1.031h2.895
			c-0.308,1.17-0.919,2.092-1.833,2.764c-0.914,0.673-2.012,1.009-3.295,1.009c-1.047,0-1.984-0.233-2.81-0.701
			c-0.826-0.467-1.47-1.116-1.932-1.947c-0.462-0.832-0.693-1.781-0.693-2.849S52.055,12.809,52.517,11.972z"/>
		<path fill="#6C489D" d="M66.321,19.647c-0.847-0.472-1.52-1.132-2.017-1.979c-0.498-0.847-0.747-1.799-0.747-2.856
			c0-1.057,0.249-2.007,0.747-2.849c0.498-0.841,1.17-1.498,2.017-1.971c0.847-0.472,1.778-0.708,2.794-0.708
			c1.017,0,1.948,0.236,2.795,0.708c0.847,0.473,1.514,1.13,2.001,1.971c0.487,0.842,0.731,1.792,0.731,2.849
			c0,1.058-0.246,2.01-0.739,2.856c-0.493,0.847-1.16,1.507-2.001,1.979c-0.842,0.473-1.771,0.708-2.787,0.708
			C68.099,20.355,67.167,20.12,66.321,19.647z M71.187,17.092c0.518-0.575,0.777-1.335,0.777-2.279c0-0.954-0.259-1.717-0.777-2.286
			c-0.519-0.57-1.209-0.854-2.071-0.854c-0.873,0-1.568,0.282-2.086,0.847c-0.519,0.564-0.778,1.329-0.778,2.294
			c0,0.955,0.259,1.717,0.778,2.287c0.518,0.569,1.213,0.854,2.086,0.854C69.978,17.954,70.668,17.667,71.187,17.092z M70.901,7.268
			l-3.71,1.556V7.006l3.71-1.786V7.268z"/>
		<path fill="#6C489D" d="M83.144,10.116c0.852,0.452,1.511,1.086,1.979,1.902c0.467,0.815,0.7,1.758,0.7,2.825
			c0,1.058-0.233,1.996-0.7,2.817c-0.468,0.821-1.13,1.458-1.986,1.909c-0.857,0.452-1.851,0.678-2.98,0.678h-4.05V9.439h4.05
			C81.296,9.439,82.291,9.665,83.144,10.116z M82.312,17.153c0.555-0.544,0.832-1.314,0.832-2.31c0-0.996-0.277-1.771-0.832-2.325
			c-0.554-0.555-1.33-0.831-2.325-0.831h-1.248v6.281h1.248C80.982,17.969,81.758,17.697,82.312,17.153z"/>
		<path fill="#6C489D" d="M89.934,9.439v10.809h-2.633V9.439H89.934z"/>
		<path fill="#6C489D" d="M99.018,12.857c-0.195-0.359-0.475-0.634-0.839-0.824c-0.365-0.189-0.793-0.284-1.286-0.284
			c-0.852,0-1.534,0.279-2.048,0.839s-0.77,1.307-0.77,2.24c0,0.996,0.27,1.773,0.809,2.333c0.538,0.56,1.28,0.839,2.225,0.839
			c0.646,0,1.193-0.164,1.64-0.493c0.446-0.328,0.772-0.8,0.978-1.416h-3.341v-1.94h5.728v2.448
			c-0.195,0.657-0.526,1.269-0.993,1.832c-0.467,0.565-1.06,1.022-1.778,1.371s-1.529,0.523-2.433,0.523
			c-1.067,0-2.02-0.233-2.856-0.701c-0.837-0.467-1.488-1.116-1.955-1.947c-0.468-0.832-0.701-1.781-0.701-2.849
			s0.233-2.02,0.701-2.856c0.467-0.836,1.116-1.488,1.947-1.955c0.832-0.467,1.781-0.701,2.849-0.701
			c1.294,0,2.384,0.313,3.272,0.939c0.888,0.626,1.476,1.494,1.763,2.603H99.018z"/>
		<path fill="#6C489D" d="M105.892,19.647c-0.847-0.472-1.519-1.132-2.017-1.979s-0.747-1.799-0.747-2.856
			c0-1.057,0.249-2.007,0.747-2.849c0.498-0.841,1.17-1.498,2.017-1.971c0.848-0.472,1.779-0.708,2.795-0.708
			c1.017,0,1.948,0.236,2.795,0.708c0.847,0.473,1.514,1.13,2.002,1.971c0.487,0.842,0.731,1.792,0.731,2.849
			c0,1.058-0.247,2.01-0.739,2.856c-0.493,0.847-1.16,1.507-2.002,1.979c-0.842,0.473-1.771,0.708-2.787,0.708
			C107.671,20.355,106.739,20.12,105.892,19.647z M110.758,17.092c0.519-0.575,0.777-1.335,0.777-2.279
			c0-0.954-0.259-1.717-0.777-2.286c-0.519-0.57-1.209-0.854-2.071-0.854c-0.872,0-1.568,0.282-2.086,0.847
			c-0.519,0.564-0.777,1.329-0.777,2.294c0,0.955,0.259,1.717,0.777,2.287c0.518,0.569,1.214,0.854,2.086,0.854
			C109.549,17.954,110.239,17.667,110.758,17.092z"/>
		<path fill="#6C489D" d="M119.188,11.972c0.462-0.836,1.105-1.488,1.933-1.955c0.826-0.467,1.763-0.701,2.81-0.701
			c1.283,0,2.382,0.339,3.295,1.017c0.914,0.678,1.524,1.602,1.832,2.771h-2.895c-0.215-0.451-0.521-0.795-0.916-1.031
			s-0.845-0.354-1.347-0.354c-0.812,0-1.469,0.282-1.972,0.847s-0.754,1.319-0.754,2.264s0.251,1.699,0.754,2.264
			s1.16,0.847,1.972,0.847c0.502,0,0.951-0.118,1.347-0.354c0.396-0.235,0.701-0.579,0.916-1.031h2.895
			c-0.308,1.17-0.918,2.092-1.832,2.764c-0.913,0.673-2.012,1.009-3.295,1.009c-1.047,0-1.983-0.233-2.81-0.701
			c-0.827-0.467-1.471-1.116-1.933-1.947c-0.462-0.832-0.693-1.781-0.693-2.849S118.726,12.809,119.188,11.972z"/>
		<path fill="#6C489D" d="M136.186,20.248l-2.248-4.08h-0.631v4.08h-2.633V9.439h4.419c0.852,0,1.578,0.148,2.179,0.446
			s1.049,0.706,1.347,1.224c0.298,0.519,0.447,1.096,0.447,1.732c0,0.719-0.203,1.36-0.608,1.925
			c-0.406,0.564-1.004,0.965-1.794,1.201l2.494,4.28H136.186z M133.307,14.305h1.632c0.482,0,0.844-0.118,1.086-0.354
			c0.24-0.235,0.361-0.569,0.361-1.001c0-0.41-0.121-0.733-0.361-0.97c-0.242-0.236-0.604-0.354-1.086-0.354h-1.632V14.305z"/>
		<path fill="#6C489D" d="M143.346,9.439v10.809h-2.633V9.439H143.346z"/>
		<path fill="#6C489D" d="M147.041,19.971c-0.627-0.256-1.127-0.636-1.502-1.14c-0.375-0.502-0.572-1.108-0.593-1.816h2.803
			c0.041,0.4,0.18,0.706,0.416,0.916c0.235,0.211,0.544,0.315,0.924,0.315c0.39,0,0.697-0.09,0.924-0.27
			c0.226-0.179,0.338-0.428,0.338-0.746c0-0.268-0.09-0.487-0.269-0.662c-0.181-0.175-0.4-0.318-0.662-0.432
			c-0.263-0.112-0.635-0.241-1.117-0.385c-0.698-0.216-1.268-0.431-1.709-0.646s-0.821-0.534-1.139-0.955
			c-0.318-0.421-0.478-0.97-0.478-1.647c0-1.006,0.364-1.794,1.093-2.363s1.679-0.854,2.849-0.854c1.19,0,2.15,0.285,2.88,0.854
			c0.729,0.569,1.118,1.362,1.17,2.379h-2.849c-0.021-0.349-0.149-0.624-0.385-0.824c-0.236-0.2-0.539-0.3-0.909-0.3
			c-0.317,0-0.574,0.085-0.77,0.254c-0.195,0.17-0.292,0.413-0.292,0.731c0,0.35,0.164,0.621,0.492,0.816s0.842,0.405,1.54,0.631
			c0.698,0.236,1.265,0.462,1.701,0.678s0.813,0.528,1.132,0.939c0.318,0.41,0.478,0.938,0.478,1.586
			c0,0.615-0.157,1.175-0.47,1.678c-0.313,0.503-0.768,0.903-1.363,1.201c-0.595,0.298-1.298,0.446-2.109,0.446
			C148.375,20.355,147.667,20.228,147.041,19.971z"/>
	</g>
</g>
</svg>
