<?xml version="1.0" encoding="iso-8859-1"?>
<!-- Generator: Adobe Illustrator 19.0.0, SVG Export Plug-In . SVG Version: 6.00 Build 0)  -->
<svg version="1.1" id="Layer_1" xmlns="http://www.w3.org/2000/svg" xmlns:xlink="http://www.w3.org/1999/xlink" x="0px" y="0px"
	 viewBox="0 0 512.002 512.002" style="enable-background:new 0 0 512.002 512.002;" xml:space="preserve">
<g>
	<g>
		<path d="M459.059,300.428c23.914-52.074,29.333-102.889,15.672-146.95c-9.848-31.757-29.482-58.641-56.451-77.937
			c7.89-3.91,14.554-10.418,18.507-19.025c9.172-19.974,0.384-43.685-19.587-52.857c-9.677-4.443-20.503-4.852-30.485-1.153
			c-9.984,3.7-17.929,11.065-22.371,20.741c-3.848,8.38-4.665,17.622-2.414,26.432c-20.217-4.949-40.894-5.812-61.018-2.404
			c-4.84,0.819-8.1,5.409-7.281,10.251c0.819,4.841,5.407,8.101,10.251,7.281c26.494-4.487,54.173-0.582,80.036,11.293
			c0.004,0.001,0.007,0.004,0.012,0.006c0.004,0.001,0.008,0.004,0.012,0.005c36.23,16.643,62.441,45.989,73.803,82.636
			c12.343,39.808,7.21,86.235-14.846,134.263l-20.101,43.77c-13.263,28.88-11.798,71.686,4.358,127.226
			c2.653,9.126-0.046,18.27-7.225,24.461c-7.136,6.154-16.515,7.476-25.095,3.537L61.361,338.855
			c-8.578-3.939-13.689-11.917-13.671-21.339c0.019-9.479,5.195-17.487,13.847-21.419c52.655-23.94,86.078-50.724,99.342-79.604
			l20.101-43.77c22.057-48.027,53.927-82.176,92.165-98.755c4.506-1.952,6.573-7.189,4.62-11.693s-7.187-6.573-11.693-4.621
			c-42.323,18.35-77.335,55.574-101.25,107.649l-20.101,43.77c-11.268,24.533-42.576,49.028-90.543,70.837
			c-14.938,6.792-24.237,21.189-24.269,37.573c-0.03,16.329,9.178,30.711,24.032,37.533l101.108,46.433
			c-11.005,34.508,5.231,72.711,38.966,88.204c9.758,4.481,20.127,6.667,30.414,6.667c17.801,0,35.358-6.545,49.077-19.075
			c3.626-3.311,3.88-8.935,0.569-12.561c-3.311-3.625-8.935-3.88-12.561-0.569c-16.363,14.944-39.946,18.625-60.08,9.379
			c-24.809-11.393-37.1-39.043-30.076-64.554l216.06,99.223c5.608,2.576,11.51,3.839,17.35,3.839
			c9.625,0,19.084-3.432,26.778-10.069c12.408-10.701,17.269-27.136,12.686-42.894c-14.715-50.594-16.538-90.305-5.272-114.839
			L459.059,300.428z M391.352,59.944c-5.359-2.461-9.439-6.861-11.487-12.39c-2.049-5.529-1.823-11.527,0.639-16.887
			c2.461-5.359,6.861-9.439,12.391-11.487c2.5-0.926,5.095-1.387,7.683-1.387c3.137,0,6.266,0.678,9.203,2.026
			c11.063,5.08,15.93,18.213,10.849,29.276C415.548,60.157,402.412,65.025,391.352,59.944z"/>
	</g>
</g>
<g>
	<g>
		<path d="M405.589,436.677l-38.511-17.686c-4.463-2.05-9.741-0.092-11.789,4.37c-2.05,4.462-0.094,9.741,4.37,11.789l38.511,17.685
			c1.202,0.552,2.463,0.814,3.705,0.814c3.368,0,6.589-1.923,8.085-5.183C412.008,444.004,410.052,438.725,405.589,436.677z"/>
	</g>
</g>
<g>
	<g>
		<path d="M333.901,403.754L96.319,294.645c-4.463-2.051-9.742-0.093-11.789,4.37c-2.05,4.462-0.094,9.741,4.37,11.789
			l237.582,109.108c1.202,0.552,2.463,0.814,3.705,0.814c3.368,0,6.589-1.923,8.085-5.183
			C340.32,411.081,338.364,405.802,333.901,403.754z"/>
	</g>
</g>
<g>
</g>
<g>
</g>
<g>
</g>
<g>
</g>
<g>
</g>
<g>
</g>
<g>
</g>
<g>
</g>
<g>
</g>
<g>
</g>
<g>
</g>
<g>
</g>
<g>
</g>
<g>
</g>
<g>
</g>
</svg>
